<?xml version="1.0" standalone="no"?><!DOCTYPE svg PUBLIC "-//W3C//DTD SVG 1.1//EN" "http://www.w3.org/Graphics/SVG/1.1/DTD/svg11.dtd"><svg t="1564716007609" class="icon" viewBox="0 0 1024 1024" version="1.1" xmlns="http://www.w3.org/2000/svg" p-id="8465" xmlns:xlink="http://www.w3.org/1999/xlink" width="32" height="32"><defs><style type="text/css"></style></defs><path d="M220.311685 121.57594m-121.229039 0a118.468 118.468 0 1 0 242.458077 0 118.468 118.468 0 1 0-242.458077 0Z" p-id="8466" fill="#d81e06"></path><path d="M464.436728 74.557066m-72.63939 0a70.985 70.985 0 1 0 145.278781 0 70.985 70.985 0 1 0-145.278781 0Z" p-id="8467" fill="#d81e06"></path><path d="M668.793022 117.125581m-72.63939 0a70.985 70.985 0 1 0 145.278781 0 70.985 70.985 0 1 0-145.278781 0Z" p-id="8468" fill="#d81e06"></path><path d="M852.27694 219.362057m-72.63939 0a70.985 70.985 0 1 0 145.278781 0 70.985 70.985 0 1 0-145.278781 0Z" p-id="8469" fill="#d81e06"></path><path d="M390.45783 243.666602c0 0-91.729168-4.437056-152.37234 55.67502s-61.650105 111.096261-29.244045 163.865091 102.464673 49.737798 97.333816 170.416298c-5.130857 120.679523-54.196343 121.621988-61.555961 193.400778s9.564843 168.784124 173.075871 193.557344 325.879022-104.900142 361.943402-221.819015c36.063357-116.918873 85.375459-215.795834 79.509868-318.357721-6.837732-119.55184-64.525596-235.43001-208.121038-236.08288S390.45783 243.666602 390.45783 243.666602z" p-id="8470" fill="#d81e06"></path></svg>